<?xml version="1.0" encoding="utf-8"?>
<!-- Generator: Adobe Illustrator 26.3.1, SVG Export Plug-In . SVG Version: 6.00 Build 0)  -->
<svg version="1.1" xmlns="http://www.w3.org/2000/svg" xmlns:xlink="http://www.w3.org/1999/xlink" x="0px" y="0px"
	 viewBox="0 0 1050.7 266.7" style="enable-background:new 0 0 1050.7 266.7;" xml:space="preserve">
<style type="text/css">
	.st0{fill:#FFFFFF;}
	.st1{fill:url(#SVGID_1_);}
</style>
<g id="BG">
</g>
<g id="Logo">
	<g>
		<g>
			<path class="st0" d="M315.2,131.1c14.4,1.2,19.2,10.2,19.2,25.5c0,19.6-9,24.9-31.3,24.9c-17.4,0-26.6-0.1-38-1.1V84.9
				c10.2-1,18.5-1.1,33.8-1.1c24.1,0,32.6,5.3,32.6,24.9c0,13.7-4.7,20.8-16.3,21.9V131.1z M299.4,124.6c11.6,0,15.5-2.8,15.5-13.7
				c0-10.7-4.1-13.1-16.9-13.1h-15.9v26.8H299.4z M300.2,167.5c12.9,0,16.9-2.6,16.9-14.1c0-12.7-4.3-16-17.4-16.2h-17.6v30.2
				L300.2,167.5z"/>
			<path class="st0" d="M355.2,83.1c3.3,0,4.8,1.8,4.8,4.8v7.6c0,3.2-1.5,4.8-4.8,4.8h-7.7c-3.2,0-4.8-1.7-4.8-4.8V88
				c0-3,1.7-4.8,4.8-4.8H355.2z M343,180.4v-67.8h16.7v67.8H343z"/>
			<path class="st0" d="M396.9,159.2c0,5.9,2.1,7.9,8.2,7.9h9.3l1.8,12.5c-4.7,1.5-13.3,2.4-17.4,2.4c-11.9,0-18.4-7.2-18.4-19.8
				v-37.4H368v-11.5l12.2-0.7V93.1h16.7v19.5h19.9v12.2h-19.9V159.2z"/>
			<path class="st0" d="M440.5,122.7c6.4-7.1,17.8-11.9,27.8-11.9c16.5,0,23.1,13.3,23.1,36.2c0,26.6-8.9,35-26,35
				c-8.3,0-16.6-1.9-23.5-6.6c0.4,4.7,0.6,9.3,0.4,14.1v17.8h-16.7v-94.8h13.8L440.5,122.7z M442.3,165.4c6.8,1.5,11.6,2.9,18.1,2.9
				c10,0,13.7-3.5,13.7-21.4c0-17.2-3.3-22.3-12-22.3c-6.5,0-11.9,3-19.8,8.4V165.4z"/>
			<path class="st0" d="M564.7,146.5c0,26-9,35.7-33.3,35.7c-24.5,0-33.6-9.7-33.6-35.7c0-26,9.1-35.8,33.6-35.8
				C555.7,110.7,564.7,120.5,564.7,146.5z M515.3,146.5c0,17.4,3.6,22.3,16,22.3c12.2,0,15.9-4.8,15.9-22.3
				c0-17.6-3.7-22.4-15.9-22.4C518.9,124.1,515.3,128.9,515.3,146.5z"/>
			<path class="st0" d="M638.2,146.5c0,26-9,35.7-33.3,35.7c-24.5,0-33.6-9.7-33.6-35.7c0-26,9.1-35.8,33.6-35.8
				C629.2,110.7,638.2,120.5,638.2,146.5z M588.8,146.5c0,17.4,3.6,22.3,16,22.3c12.2,0,15.9-4.8,15.9-22.3
				c0-17.6-3.7-22.4-15.9-22.4C592.4,124.1,588.8,128.9,588.8,146.5z"/>
			<path class="st0" d="M661.7,159.2c-0.1,5.4,2.6,7.9,8,7.9h5.8l1.9,12.5c-3,1.5-10.5,2.4-14.4,2.4c-11.2,0-18.3-6.6-18.3-18.5
				V83.5h16.9V159.2z"/>
		</g>
		<linearGradient id="SVGID_1_" gradientUnits="userSpaceOnUse" x1="59.5496" y1="133.347" x2="230.5863" y2="133.347">
			<stop  offset="0" style="stop-color:#83D7F7"/>
			<stop  offset="1" style="stop-color:#00ADEF"/>
		</linearGradient>
		<path class="st1" d="M145.1,229.7c-2.6,0-5.1-0.6-7-1.7l-71.4-41.2c-4-2.3-7-7.6-7-12.2V92.1c0-4.6,3-9.9,7-12.2L138,38.6
			c3.9-2.2,10.2-2.2,14.1,0l71.4,41.2c4,2.3,7,7.6,7,12.2v82.5c0,4.6-3,9.9-7,12.2L152.1,228C150.2,229.1,147.7,229.7,145.1,229.7z
			 M145.1,45c-1.2,0-2.3,0.2-3,0.6L70.7,86.9c-1.5,0.9-3,3.4-3,5.1v82.5c0,1.7,1.5,4.3,3,5.1l71.4,41.2c1.4,0.8,4.5,0.8,5.9,0
			l71.4-41.2c1.5-0.9,3-3.4,3-5.1V92.1c0-1.7-1.5-4.3-3-5.1L148,45.7C147.3,45.3,146.2,45,145.1,45z M145.2,202.4L145.2,202.4
			l59.8-34.7V148l-59.8,34.6l-25.6-14.8v19.7L145.2,202.4L145.2,202.4L145.2,202.4L145.2,202.4z M170.8,118.3l-25.6-14.8l-25.6,14.8
			V148l25.6,14.8v0l0,0l0,0v0l25.6-14.8v-29.6 M205,98.7l-59.7-34.6l-17.1,9.9l59.7,34.6v29.7l17.1-9.9V98.7z M85.5,98.7v68.8
			l17.1,9.9v-68.9l25.8-15l-17.1-9.9L85.5,98.7z"/>
		<g>
			<path class="st0" d="M736.3,100.7c1.3-1.3,3.2-2,5.8-2h37.8l0.8-13c-4.4-0.4-9.1-0.7-14-0.8c-4.9-0.2-10-0.3-15-0.3
				c-5.1,0-10.1,0-14.9,0c-6,0-10.8,1.7-14.3,5c-3.6,3.3-5.4,7.8-5.5,13.4v60.5c0.1,5.6,1.9,10.1,5.5,13.4c3.6,3.3,8.4,5,14.3,5
				c4.9,0,9.8,0,14.9-0.1c5.1,0,10.1-0.1,15-0.3c4.9-0.1,9.6-0.4,14-0.8l-0.8-13h-37.8c-2.6,0-4.6-0.7-5.8-2
				c-1.3-1.3-1.9-3.4-1.9-6.2v-22.1h40.2v-12.9h-40.2v-17.6C734.4,104,735.1,102,736.3,100.7z"/>
			<path class="st0" d="M832.8,103.2c0,2.9,0,5.7,0.1,8.5c0.1,1.9,0.2,3.8,0.4,5.7c-3-2-6.2-3.4-9.7-4.4c-4.5-1.3-9.1-1.9-13.7-1.9
				c-5.8,0-10.6,1.1-14.5,3.3c-3.9,2.2-6.8,5.9-8.7,11.1c-1.9,5.2-2.9,12.3-2.9,21.4c0,11.9,1.9,20.9,5.6,27.1
				c3.7,6.2,10,9.3,18.8,9.3c6.1,0,11.4-1.3,16-3.8c4.1-2.3,7.6-5,10.6-8.1l1.5,10.3h13.3v-98h-16.9V103.2z M821.5,168.1
				c-2,0.6-4.2,0.9-6.7,0.9c-3.1,0-5.6-0.6-7.6-1.9c-2-1.3-3.5-3.5-4.4-6.7c-0.9-3.2-1.4-7.8-1.4-13.8c0-6.3,0.5-11,1.5-14.3
				c1-3.3,2.5-5.5,4.5-6.7c2-1.2,4.7-1.8,8.1-1.8c3.5,0,6.8,0.4,9.7,1.1c2.4,0.6,5,1.3,7.8,2.1v34.6c-2,1.3-3.7,2.5-5.3,3.5
				C825.5,166.5,823.5,167.5,821.5,168.1z"/>
			<path class="st0" d="M905.4,167l-25.5-3.4c-2.7-0.4-4.5-1.3-5.2-2.9c-0.8-1.5-0.9-3.2-0.4-4.9c0.2-0.8,0.6-1.6,1.1-2.3
				c3.7,0.6,8.1,1,13.1,1c7.7,0,13.9-0.7,18.5-2.2c4.6-1.5,7.8-3.8,9.8-7.1c2-3.2,2.9-7.3,2.9-12.4c0-4.5-0.7-8.3-2.2-11.3l9.2-1
				l1-7.8h-22.4c-4.3-1.1-9.9-1.7-16.7-1.7c-7.7,0-13.9,0.7-18.5,2.2c-4.6,1.4-7.9,3.8-9.9,7c-2,3.2-3,7.4-3,12.7
				c0,5.1,1,9.3,3,12.5c1.5,2.4,3.8,4.3,6.7,5.8c-1.4,0.8-2.6,1.9-3.5,3.3c-1.3,1.9-2.1,3.9-2.4,6.1c-0.3,2.2-0.1,4.4,0.6,6.6
				c0.7,2.1,2,3.9,3.8,5.4c-1.9,0.9-3.6,1.8-4.9,2.8c-2.2,1.6-3.9,3.5-4.8,5.5c-1,2.1-1.5,4.6-1.5,7.6c0,3.8,0.6,7,1.7,9.6
				c1.1,2.6,3,4.7,5.7,6.3c2.7,1.6,6.2,2.8,10.7,3.5c4.5,0.7,10.1,1.1,16.9,1.1c8.6,0,15.4-0.6,20.5-1.9c5.1-1.3,8.8-3.5,11-6.6
				c2.2-3.2,3.4-7.6,3.4-13.3c0-6.1-1.4-10.7-4.2-13.9S912.3,167.9,905.4,167z M876.2,124.5c2.2-1.6,6.3-2.4,12.2-2.4
				s9.9,0.8,12.1,2.4c2.2,1.6,3.3,4.4,3.3,8.4c0,3.8-1.1,6.6-3.3,8.2c-2.2,1.6-6.2,2.4-12.1,2.4s-9.9-0.8-12.2-2.4
				c-2.2-1.6-3.4-4.4-3.4-8.2C872.9,128.9,874,126.1,876.2,124.5z M906.3,192.5c-1.1,1.4-3,2.3-5.7,2.8c-2.7,0.5-6.5,0.8-11.5,0.8
				c-4.9,0-8.6-0.3-11.3-0.8c-2.7-0.5-4.6-1.5-5.7-2.9c-1.1-1.4-1.6-3.4-1.6-6c0-2,0.3-3.6,0.9-4.8c0.6-1.3,1.6-2.5,2.9-3.8
				c0.6-0.6,1.3-1.2,2.1-1.8l20,2.4c3,0.4,5.3,0.8,7,1.4c1.7,0.6,2.8,1.3,3.5,2.3c0.7,1,1,2.5,1,4.5
				C907.9,189.2,907.3,191.1,906.3,192.5z"/>
			<path class="st0" d="M974.7,169c-4.5,0.3-8.5,0.4-12,0.4c-4.7,0-8.4-0.6-11.2-1.9c-2.8-1.3-4.8-3.6-6-7.1c-0.7-2-1.2-4.5-1.5-7.4
				h27.7c7,0,12-1.6,15-4.8c3-3.2,4.5-8,4.4-14.2c-0.1-7.6-2.6-13.3-7.4-17.2c-4.9-3.9-12.8-5.8-23.9-5.8c-7.9,0-14.4,1.1-19.4,3.4
				c-5,2.2-8.6,6-10.9,11.3c-2.3,5.3-3.4,12.4-3.4,21.5c0,8.4,1.1,15.3,3.4,20.6c2.3,5.3,6,9.2,11.1,11.7c5.1,2.5,11.8,3.7,20.2,3.7
				c3.1,0,6.4-0.2,9.9-0.5c3.5-0.3,6.9-0.8,10.2-1.5c3.3-0.7,6.2-1.5,8.7-2.5l-1.7-10.8C983.6,168.4,979.3,168.7,974.7,169z
				 M950.3,125.5c2.4-1.2,5.8-1.8,10.2-1.8c5,0,8.6,0.7,10.7,2.2c2.1,1.5,3.2,4.2,3.3,8c0,2.4-0.4,4.5-1.3,6.2
				c-0.9,1.7-2.9,2.5-6.1,2.5h-23.3c0.2-4.4,0.6-7.9,1.4-10.5C946.2,128.9,947.9,126.7,950.3,125.5z"/>
		</g>
	</g>
</g>
</svg>
