<?xml version="1.0" encoding="utf-8"?>
<!-- Generator: Adobe Illustrator 16.0.0, SVG Export Plug-In . SVG Version: 6.00 Build 0)  -->
<!DOCTYPE svg PUBLIC "-//W3C//DTD SVG 1.1//EN" "http://www.w3.org/Graphics/SVG/1.1/DTD/svg11.dtd">
<svg version="1.1" id="Layer_1" xmlns="http://www.w3.org/2000/svg" xmlns:xlink="http://www.w3.org/1999/xlink" x="0px" y="0px"
	 width="236.217px" height="60px" viewBox="0 0 236.217 60" enable-background="new 0 0 236.217 60" xml:space="preserve">
<g>
	<g id="Logo_2_">
		<path fill="#2BACE2" d="M26.618,60c-0.809,0-1.585-0.19-2.192-0.542L2.193,46.621C0.945,45.901,0,44.271,0,42.828V17.149
			c0-1.439,0.945-3.069,2.193-3.79L24.426,0.523c1.208-0.698,3.175-0.698,4.378,0l22.24,12.836c1.247,0.721,2.188,2.351,2.188,3.79
			v25.679c0,1.443-0.941,3.073-2.188,3.793l-22.24,12.837C28.202,59.81,27.426,60,26.618,60z M26.618,2.519
			c-0.359,0-0.705,0.07-0.923,0.202L3.458,15.557c-0.463,0.269-0.923,1.06-0.923,1.593v25.679c0,0.539,0.46,1.332,0.923,1.598
			l22.237,12.837c0.434,0.253,1.408,0.255,1.844,0l22.239-12.837c0.463-0.266,0.923-1.059,0.923-1.598V17.149
			c0-0.533-0.459-1.324-0.923-1.593L27.539,2.721C27.321,2.589,26.977,2.519,26.618,2.519z"/>
		<polygon fill="#2BACE2" points="26.671,51.493 26.671,51.493 26.671,51.493 18.699,46.883 18.699,40.737 26.671,45.341 
			45.27,34.56 45.27,40.704 26.675,51.493 26.675,51.493 		"/>
		<polyline fill="#2BACE2" points="34.637,25.354 34.637,34.572 26.675,39.178 26.675,39.185 26.666,39.181 26.66,39.185 
			26.66,39.178 18.699,34.572 18.699,25.312 26.666,20.7 34.637,25.312 		"/>
		<polygon fill="#2BACE2" points="45.27,28.443 39.954,31.517 39.954,22.276 21.372,11.506 26.686,8.437 45.27,19.208 		"/>
		<polygon fill="#2BACE2" points="16.082,14.539 21.398,17.611 13.378,22.291 13.378,43.726 8.062,40.649 8.062,19.223 		"/>
	</g>
	<g id="Bitpool_2_">
		<path fill="#F5F6F6" d="M97.269,31.132v0.194c2.414,0.227,4.137,1.069,5.164,2.534c1.029,1.465,1.545,3.577,1.545,6.345
			c0,3.345-0.82,5.63-2.459,6.852c-1.643,1.222-4.458,1.831-8.447,1.831c-5.79,0-10.214-0.125-13.271-0.383V15.208
			c2.737-0.26,6.66-0.384,11.774-0.384c4.277,0,7.247,0.601,8.904,1.805c1.657,1.208,2.485,3.501,2.485,6.877
			c0,2.413-0.447,4.241-1.351,5.476C100.711,30.224,99.261,30.939,97.269,31.132z M85.737,29.059h6.031
			c2.06,0,3.474-0.333,4.25-0.99c0.766-0.657,1.155-1.925,1.155-3.789c0-1.834-0.417-3.058-1.258-3.667
			c-0.835-0.61-2.376-0.918-4.633-0.918h-5.546V29.059z M85.737,43.968l6.323,0.048c2.283,0,3.836-0.33,4.658-0.989
			c0.818-0.657,1.227-1.971,1.227-3.934c0-2.186-0.432-3.664-1.302-4.438c-0.868-0.771-2.463-1.172-4.777-1.208h-6.128V43.968z"/>
		<path fill="#F5F6F6" d="M108.995,14.581h2.705c1.124,0,1.686,0.562,1.686,1.687v2.659c0,1.124-0.562,1.687-1.686,1.687h-2.705
			c-1.126,0-1.688-0.562-1.688-1.687v-2.659C107.307,15.143,107.869,14.581,108.995,14.581z M113.289,48.505h-5.839V24.858h5.839
			V48.505z"/>
		<path fill="#F5F6F6" d="M125.497,29.106v12.016c0,1.029,0.211,1.745,0.63,2.145c0.417,0.404,1.157,0.605,2.219,0.605h3.234
			l0.625,4.34c-1.701,0.551-3.728,0.822-6.078,0.822c-2.058,0-3.646-0.594-4.755-1.785c-1.107-1.19-1.663-2.896-1.663-5.114V29.106
			h-4.294V25.1l4.245-0.241v-6.805h5.837v6.805h6.951v4.248H125.497z"/>
		<path fill="#F5F6F6" d="M139.349,24.858l0.389,3.523c1.089-1.222,2.545-2.22,4.363-2.992c1.816-0.773,3.596-1.157,5.33-1.157
			c5.376,0,8.061,4.215,8.061,12.642c0,4.474-0.734,7.625-2.195,9.457c-1.465,1.835-3.756,2.753-6.874,2.753
			c-3.184,0-5.92-0.771-8.203-2.316c0.128,1.641,0.174,3.283,0.143,4.922v6.224h-5.837V24.858H139.349z M140.361,32v11.294
			c3.025,0.674,5.131,1.013,6.321,1.013c1.802,0,3.047-0.493,3.741-1.473c0.694-0.981,1.036-2.98,1.036-6.006
			c0-2.963-0.313-4.995-0.939-6.106c-0.628-1.109-1.712-1.663-3.258-1.663c-1.062,0-2.1,0.234-3.115,0.7
			C143.137,30.224,141.872,30.971,140.361,32z"/>
		<path fill="#F5F6F6" d="M171.292,24.181c4.248,0,7.249,0.952,9.004,2.85c1.752,1.898,2.629,5.116,2.629,9.651
			c0,4.534-0.877,7.744-2.629,9.626c-1.755,1.884-4.756,2.823-9.004,2.823c-4.279,0-7.3-0.939-9.069-2.823
			c-1.774-1.882-2.661-5.092-2.661-9.626c0-4.535,0.886-7.753,2.661-9.651C163.992,25.133,167.013,24.181,171.292,24.181z
			 M171.292,28.865c-2.186,0-3.666,0.538-4.438,1.614c-0.774,1.081-1.155,3.146-1.155,6.202c0,3.025,0.381,5.077,1.155,6.152
			c0.773,1.078,2.252,1.615,4.438,1.615c2.126,0,3.58-0.537,4.371-1.615c0.783-1.075,1.181-3.127,1.181-6.152
			c0-3.056-0.397-5.121-1.181-6.202C174.872,29.403,173.418,28.865,171.292,28.865z"/>
		<path fill="#F5F6F6" d="M196.675,24.181c4.248,0,7.247,0.952,9,2.85c1.754,1.898,2.631,5.116,2.631,9.651
			c0,4.534-0.877,7.744-2.631,9.626c-1.753,1.884-4.752,2.823-9,2.823c-4.275,0-7.303-0.939-9.069-2.823
			c-1.771-1.882-2.655-5.092-2.655-9.626c0-4.535,0.885-7.753,2.655-9.651C189.372,25.133,192.399,24.181,196.675,24.181z
			 M196.675,28.865c-2.187,0-3.666,0.538-4.437,1.614c-0.773,1.081-1.159,3.146-1.159,6.202c0,3.025,0.386,5.077,1.159,6.152
			c0.771,1.078,2.25,1.615,4.437,1.615c2.126,0,3.579-0.537,4.369-1.615c0.787-1.075,1.181-3.127,1.181-6.152
			c0-3.056-0.394-5.121-1.181-6.202C200.254,29.403,198.801,28.865,196.675,28.865z"/>
		<path fill="#F5F6F6" d="M217.327,14.725v26.397c-0.031,0.934,0.187,1.624,0.654,2.074c0.465,0.449,1.183,0.676,2.146,0.676h2.027
			l0.674,4.34c-1.092,0.551-2.767,0.822-5.016,0.822c-1.965,0-3.516-0.562-4.656-1.688c-1.143-1.126-1.712-2.717-1.712-4.779V14.725
			H217.327z"/>
		<g id="TM_2_">
			<path fill="#F5F6F6" d="M227.334,15.864h-2.058v5.147h-1.531v-5.147h-2.06V14.74h5.648V15.864z"/>
			<path fill="#F5F6F6" d="M233.908,14.74h1.466c0.368,0,0.556,0.172,0.571,0.517l0.271,5.755h-1.439l-0.23-5.191h-0.169
				l-1.041,3.882c-0.07,0.297-0.275,0.446-0.623,0.446h-1c-0.346,0-0.551-0.149-0.617-0.446l-1.055-3.882h-0.168l-0.198,5.191h-1.44
				l0.249-5.755c0.02-0.344,0.21-0.517,0.569-0.517h1.474c0.324,0,0.525,0.148,0.598,0.443l0.842,3.131
				c0.052,0.197,0.111,0.49,0.18,0.879h0.128c0.009-0.029,0.031-0.158,0.075-0.374c0.042-0.216,0.08-0.387,0.104-0.505l0.831-3.131
				C233.364,14.888,233.572,14.74,233.908,14.74z"/>
		</g>
	</g>
</g>
</svg>
